<svg width="255" height="255" viewBox="0 0 255 255" fill="none" xmlns="http://www.w3.org/2000/svg">
<g clip-path="url(#clip0_549_208)">
<rect width="255" height="255" rx="50" fill="url(#paint0_linear_549_208)"/>
<path d="M89.75 132.25C89.9167 125.25 90 120.25 90 117.25C89.6667 117.417 88.75 118.25 87.25 119.75C85.9167 121.25 85 122.25 84.5 122.75C84.1667 123.083 83.3333 124 82 125.5C80.8333 126.833 80 127.917 79.5 128.75C79 129.417 78.1667 130.5 77 132C75.8333 133.333 75 134.5 74.5 135.5C74 136.5 73.3333 137.833 72.5 139.5C71.6667 141 71 142.417 70.5 143.75C70 145.083 69.5 146.583 69 148.25C68.6667 149.917 68.3333 151.583 68 153.25C67.3333 157.25 67.4167 160.417 68.25 162.75C69.0833 165.083 70.4167 166.25 72.25 166.25C75.9167 165.917 79.0833 162.833 81.75 157C84.5833 151 87.25 142.75 89.75 132.25ZM89.75 153C88.0833 158.833 86.3333 163.917 84.5 168.25C82.8333 172.417 80.5 176.75 77.5 181.25C74.6667 185.75 71 189.25 66.5 191.75C62.1667 194.083 57.0833 195.25 51.25 195.25C41.9167 195.25 34.5 192 29 185.5C23.6667 178.833 21.25 171 21.75 162C22.4167 152.833 26 144.917 32.5 138.25C37.1667 133.417 43 129.25 50 125.75C57 122.083 63.1667 119.417 68.5 117.75C74 116.083 79.0833 113.583 83.75 110.25C88.5833 106.75 91.6667 102.333 93 97C94.3333 91.5 94.0833 86.4167 92.25 81.75C90.5833 76.9167 86.9167 74.25 81.25 73.75C78.4167 73.5833 75.5833 74.3333 72.75 76C70.0833 77.6667 68 79.8333 66.5 82.5C65.1667 85 64.9167 88.1667 65.75 92C66.5833 95.6667 68.8333 99.3333 72.5 103C69 107.333 64.25 110.25 58.25 111.75C52.25 113.083 46.5 112.417 41 109.75C35.6667 107.083 32.25 102.583 30.75 96.25C29.5833 87.25 35 79.5 47 73C60.1667 66 74.75 63.5833 90.75 65.75C109.917 68.0833 122.833 76.6667 129.5 91.5C132.333 97.8333 133.75 105.083 133.75 113.25L134 159.25C134 168.083 134.833 174.75 136.5 179.25C138.167 183.75 140.833 185.667 144.5 185C149.333 183.333 151.167 177.75 150 168.25C149 158.583 145.75 150.5 140.25 144C149.75 139.167 157.083 140.333 162.25 147.5C166.75 154.167 167.417 162.167 164.25 171.5C160.583 182.667 152.75 189.833 140.75 193C136.917 194.167 132.75 194.75 128.25 194.75C102.917 194.75 90.0833 180.833 89.75 153Z" fill="white"/>
<path d="M156.75 78.5C152.25 79.5 150.583 84.75 151.75 94.25C153.25 107.417 158.833 119.5 168.5 130.5C184.5 148.5 205.083 154.583 230.25 148.75L241.5 145.25C241 149.417 239.917 153.417 238.25 157.25C236.75 160.917 234.833 164.333 232.5 167.5C230.167 170.667 227.417 173.583 224.25 176.25C221.25 178.917 217.833 181.25 214 183.25C210.333 185.25 206.417 186.833 202.25 188C185.583 192.5 170 190.333 155.5 181.5C148.333 177.167 142.333 171.75 137.5 165.25C132.833 158.583 129.667 151.583 128 144.25C126.5 136.917 125.917 129.417 126.25 121.75C126.583 113.917 128.333 106.5 131.5 99.5C134.833 92.5 138.833 86.25 143.5 80.75C148.333 75.0833 154.417 70.6667 161.75 67.5C169.083 64.1667 176.917 62.5 185.25 62.5C197.417 62.5 205.583 66.5833 209.75 74.75C213.917 82.9167 213.833 91.1667 209.5 99.5C205.333 107.667 199 111.75 190.5 111.75C188.167 102.583 183.167 94.5 175.5 87.5C168 80.5 161.75 77.5 156.75 78.5Z" fill="white"/>
<mask id="mask0_549_208" style="mask-type:alpha" maskUnits="userSpaceOnUse" x="21" y="62" width="148" height="134">
<path d="M89.75 132.25C89.9167 125.25 90 120.25 90 117.25C89.6667 117.417 88.75 118.25 87.25 119.75C85.9167 121.25 85 122.25 84.5 122.75C84.1667 123.083 83.3333 124 82 125.5C80.8333 126.833 80 127.917 79.5 128.75C79 129.417 78.1667 130.5 77 132C75.8333 133.333 75 134.5 74.5 135.5C74 136.5 73.3333 137.833 72.5 139.5C71.6667 141 71 142.417 70.5 143.75C70 145.083 69.5 146.583 69 148.25C68.6667 149.917 68.3333 151.583 68 153.25C67.3333 157.25 67.4167 160.417 68.25 162.75C69.0833 165.083 70.4167 166.25 72.25 166.25C75.9167 165.917 79.0833 162.833 81.75 157C84.5833 151 87.25 142.75 89.75 132.25ZM89.75 153C88.0833 158.833 86.3333 163.917 84.5 168.25C82.8333 172.417 80.5 176.75 77.5 181.25C74.6667 185.75 71 189.25 66.5 191.75C62.1667 194.083 57.0833 195.25 51.25 195.25C41.9167 195.25 34.5 192 29 185.5C23.6667 178.833 21.25 171 21.75 162C22.4167 152.833 26 144.917 32.5 138.25C37.1667 133.417 43 129.25 50 125.75C57 122.083 63.1667 119.417 68.5 117.75C74 116.083 79.0833 113.583 83.75 110.25C88.5833 106.75 91.6667 102.333 93 97C94.3333 91.5 94.0833 86.4167 92.25 81.75C90.5833 76.9167 86.9167 74.25 81.25 73.75C78.4167 73.5833 75.5833 74.3333 72.75 76C70.0833 77.6667 68 79.8333 66.5 82.5C65.1667 85 64.9167 88.1667 65.75 92C66.5833 95.6667 68.8333 99.3333 72.5 103C69 107.333 64.25 110.25 58.25 111.75C52.25 113.083 46.5 112.417 41 109.75C35.6667 107.083 32.25 102.583 30.75 96.25C29.5833 87.25 35 79.5 47 73C60.1667 66 74.75 63.5833 90.75 65.75C109.917 68.0833 122.833 76.6667 129.5 91.5C132.333 97.8333 133.75 105.083 133.75 113.25L134 159.25C134 168.083 134.833 174.75 136.5 179.25C138.167 183.75 140.833 185.667 144.5 185C149.333 183.333 151.167 177.75 150 168.25C149 158.583 145.75 150.5 140.25 144C149.75 139.167 157.083 140.333 162.25 147.5C166.75 154.167 167.417 162.167 164.25 171.5C160.583 182.667 152.75 189.833 140.75 193C136.917 194.167 132.75 194.75 128.25 194.75C102.917 194.75 90.0833 180.833 89.75 153Z" fill="white"/>
</mask>
<g mask="url(#mask0_549_208)">
<g filter="url(#filter0_d_549_208)">
<path d="M156.75 78.5C152.25 79.5 150.583 84.75 151.75 94.25C153.25 107.417 158.833 119.5 168.5 130.5C184.5 148.5 205.083 154.583 230.25 148.75L241.5 145.25C241 149.417 239.917 153.417 238.25 157.25C236.75 160.917 234.833 164.333 232.5 167.5C230.167 170.667 227.417 173.583 224.25 176.25C221.25 178.917 217.833 181.25 214 183.25C210.333 185.25 206.417 186.833 202.25 188C185.583 192.5 170 190.333 155.5 181.5C148.333 177.167 142.333 171.75 137.5 165.25C132.833 158.583 129.667 151.583 128 144.25C126.5 136.917 125.917 129.417 126.25 121.75C126.583 113.917 128.333 106.5 131.5 99.5C134.833 92.5 138.833 86.25 143.5 80.75C148.333 75.0833 154.417 70.6667 161.75 67.5C169.083 64.1667 176.917 62.5 185.25 62.5C197.417 62.5 205.583 66.5833 209.75 74.75C213.917 82.9167 213.833 91.1667 209.5 99.5C205.333 107.667 199 111.75 190.5 111.75C188.167 102.583 183.167 94.5 175.5 87.5C168 80.5 161.75 77.5 156.75 78.5Z" fill="white"/>
</g>
</g>
</g>
<defs>
<filter id="filter0_d_549_208" x="95.45" y="41.2" width="158.35" height="174.85" filterUnits="userSpaceOnUse" color-interpolation-filters="sRGB">
<feFlood flood-opacity="0" result="BackgroundImageFix"/>
<feColorMatrix in="SourceAlpha" type="matrix" values="0 0 0 0 0 0 0 0 0 0 0 0 0 0 0 0 0 0 127 0" result="hardAlpha"/>
<feOffset dx="-9"/>
<feGaussianBlur stdDeviation="10.65"/>
<feComposite in2="hardAlpha" operator="out"/>
<feColorMatrix type="matrix" values="0 0 0 0 0 0 0 0 0 0 0 0 0 0 0 0 0 0 0.25 0"/>
<feBlend mode="normal" in2="BackgroundImageFix" result="effect1_dropShadow_549_208"/>
<feBlend mode="normal" in="SourceGraphic" in2="effect1_dropShadow_549_208" result="shape"/>
</filter>
<linearGradient id="paint0_linear_549_208" x1="127" y1="76" x2="127.5" y2="255" gradientUnits="userSpaceOnUse">
<stop stop-color="#FF3636"/>
<stop offset="0.0001" stop-color="#FF3E3E"/>
<stop offset="1" stop-color="#FF2424"/>
</linearGradient>
<clipPath id="clip0_549_208">
<rect width="255" height="255" rx="50" fill="white"/>
</clipPath>
</defs>
</svg>
